<?xml version="1.0" encoding="us-ascii" standalone="no"?><svg xmlns="http://www.w3.org/2000/svg" xmlns:xlink="http://www.w3.org/1999/xlink" contentStyleType="text/css" height="381px" preserveAspectRatio="none" style="width:2122px;height:381px;background:#FFFFFF;" version="1.1" viewBox="0 0 2122 381" width="2122px" zoomAndPan="magnify"><defs/><g><!--class Expresion--><g id="elem_Expresion"><rect codeLine="2" fill="#F1F1F1" height="162.0781" id="Expresion" rx="2.5" ry="2.5" style="stroke:#181818;stroke-width:0.5;" width="518" x="53" y="7"/><ellipse cx="273.75" cy="23" fill="#A9DCDF" rx="11" ry="11" style="stroke:#181818;stroke-width:1.0;"/><path d="M273.8594,18.3438 L272.7031,23.4219 L275.0313,23.4219 L273.8594,18.3438 Z M272.375,16.1094 L275.3594,16.1094 L278.7188,28.5 L276.2656,28.5 L275.5,25.4375 L272.2188,25.4375 L271.4688,28.5 L269.0313,28.5 L272.375,16.1094 Z " fill="#000000"/><text fill="#000000" font-family="sans-serif" font-size="14" font-style="italic" lengthAdjust="spacing" textLength="68" x="294.25" y="27.8467">Expresion</text><line style="stroke:#181818;stroke-width:0.5;" x1="54" x2="570" y1="39" y2="39"/><line style="stroke:#181818;stroke-width:0.5;" x1="54" x2="570" y1="47" y2="47"/><ellipse cx="64" cy="60.6484" fill="#84BE84" rx="3" ry="3" style="stroke:#038048;stroke-width:1.0;"/><text fill="#000000" font-family="sans-serif" font-size="14" font-style="italic" lengthAdjust="spacing" textLength="98" x="73" y="63.9951">evaluar(): float</text><ellipse cx="64" cy="76.9453" fill="#84BE84" rx="3" ry="3" style="stroke:#038048;stroke-width:1.0;"/><text fill="#000000" font-family="sans-serif" font-size="14" font-style="italic" lengthAdjust="spacing" textLength="185" x="73" y="80.292">getNumeros(): List&lt;Float&gt;</text><ellipse cx="64" cy="93.2422" fill="#84BE84" rx="3" ry="3" style="stroke:#038048;stroke-width:1.0;"/><text fill="#000000" font-family="sans-serif" font-size="14" font-style="italic" lengthAdjust="spacing" textLength="235" x="73" y="96.5889">getOperadores(): List&lt;Operador&gt;</text><ellipse cx="64" cy="109.5391" fill="#84BE84" rx="3" ry="3" style="stroke:#038048;stroke-width:1.0;"/><text fill="#000000" font-family="sans-serif" font-size="14" font-style="italic" lengthAdjust="spacing" textLength="113" x="73" y="112.8857">imprimir(): String</text><ellipse cx="64" cy="125.8359" fill="#84BE84" rx="3" ry="3" style="stroke:#038048;stroke-width:1.0;"/><text fill="#000000" font-family="sans-serif" font-size="14" font-style="italic" lengthAdjust="spacing" textLength="153" x="73" y="129.1826">getCopia() : Expresion</text><ellipse cx="64" cy="142.1328" fill="#84BE84" rx="3" ry="3" style="stroke:#038048;stroke-width:1.0;"/><text fill="#000000" font-family="sans-serif" font-size="14" font-style="italic" lengthAdjust="spacing" textLength="172" x="73" y="145.4795">getOpuesta() : Expresion</text><ellipse cx="64" cy="158.4297" fill="#84BE84" rx="3" ry="3" style="stroke:#038048;stroke-width:1.0;"/><text fill="#000000" font-family="sans-serif" font-size="14" font-style="italic" lengthAdjust="spacing" textLength="492" x="73" y="161.7764">getNormalizada(operador : Operador, expresion : Expresion): Expresion</text></g><!--class Constante--><g id="elem_Constante"><rect codeLine="13" fill="#F1F1F1" height="80.5938" id="Constante" rx="2.5" ry="2.5" style="stroke:#181818;stroke-width:0.5;" width="182" x="7" y="261.5"/><ellipse cx="57.75" cy="277.5" fill="#ADD1B2" rx="11" ry="11" style="stroke:#181818;stroke-width:1.0;"/><path d="M60.7188,283.1406 Q60.1406,283.4375 59.5,283.5781 Q58.8594,283.7344 58.1563,283.7344 Q55.6563,283.7344 54.3281,282.0938 Q53.0156,280.4375 53.0156,277.3125 Q53.0156,274.1875 54.3281,272.5313 Q55.6563,270.875 58.1563,270.875 Q58.8594,270.875 59.5,271.0313 Q60.1563,271.1875 60.7188,271.4844 L60.7188,274.2031 Q60.0938,273.625 59.5,273.3594 Q58.9063,273.0781 58.2813,273.0781 Q56.9375,273.0781 56.25,274.1563 Q55.5625,275.2188 55.5625,277.3125 Q55.5625,279.4063 56.25,280.4844 Q56.9375,281.5469 58.2813,281.5469 Q58.9063,281.5469 59.5,281.2813 Q60.0938,281 60.7188,280.4219 L60.7188,283.1406 Z " fill="#000000"/><text fill="#000000" font-family="sans-serif" font-size="14" lengthAdjust="spacing" textLength="72" x="78.25" y="282.3467">Constante</text><line style="stroke:#181818;stroke-width:0.5;" x1="8" x2="188" y1="293.5" y2="293.5"/><rect fill="none" height="6" style="stroke:#C82930;stroke-width:1.0;" width="6" x="15" y="304.1484"/><text fill="#000000" font-family="sans-serif" font-size="14" lengthAdjust="spacing" textLength="70" x="27" y="310.4951">valor: float</text><line style="stroke:#181818;stroke-width:0.5;" x1="8" x2="188" y1="317.7969" y2="317.7969"/><ellipse cx="18" cy="331.4453" fill="#84BE84" rx="3" ry="3" style="stroke:#038048;stroke-width:1.0;"/><text fill="#000000" font-family="sans-serif" font-size="14" lengthAdjust="spacing" textLength="156" x="27" y="334.792">Constante(valor : float)</text></g><!--class Termino--><g id="elem_Termino"><rect codeLine="19" fill="#F1F1F1" height="145.7813" id="Termino" rx="2.5" ry="2.5" style="stroke:#181818;stroke-width:0.5;" width="605" x="223.5" y="229"/><ellipse cx="493.25" cy="245" fill="#ADD1B2" rx="11" ry="11" style="stroke:#181818;stroke-width:1.0;"/><path d="M496.2188,250.6406 Q495.6406,250.9375 495,251.0781 Q494.3594,251.2344 493.6563,251.2344 Q491.1563,251.2344 489.8281,249.5938 Q488.5156,247.9375 488.5156,244.8125 Q488.5156,241.6875 489.8281,240.0313 Q491.1563,238.375 493.6563,238.375 Q494.3594,238.375 495,238.5313 Q495.6563,238.6875 496.2188,238.9844 L496.2188,241.7031 Q495.5938,241.125 495,240.8594 Q494.4063,240.5781 493.7813,240.5781 Q492.4375,240.5781 491.75,241.6563 Q491.0625,242.7188 491.0625,244.8125 Q491.0625,246.9063 491.75,247.9844 Q492.4375,249.0469 493.7813,249.0469 Q494.4063,249.0469 495,248.7813 Q495.5938,248.5 496.2188,247.9219 L496.2188,250.6406 Z " fill="#000000"/><text fill="#000000" font-family="sans-serif" font-size="14" lengthAdjust="spacing" textLength="57" x="513.75" y="249.8467">Termino</text><line style="stroke:#181818;stroke-width:0.5;" x1="224.5" x2="827.5" y1="261" y2="261"/><text fill="#000000" font-family="sans-serif" font-size="14" lengthAdjust="spacing" textLength="4" x="243.5" y="277.9951">&#160;</text><rect fill="none" height="6" style="stroke:#C82930;stroke-width:1.0;" width="6" x="231.5" y="287.9453"/><text fill="#000000" font-family="sans-serif" font-size="14" lengthAdjust="spacing" textLength="178" x="243.5" y="294.292">primerTermino: Expresion</text><rect fill="none" height="6" style="stroke:#C82930;stroke-width:1.0;" width="6" x="231.5" y="304.2422"/><text fill="#000000" font-family="sans-serif" font-size="14" lengthAdjust="spacing" textLength="196" x="243.5" y="310.5889">segundoTermino: Expresion</text><rect fill="none" height="6" style="stroke:#C82930;stroke-width:1.0;" width="6" x="231.5" y="320.5391"/><text fill="#000000" font-family="sans-serif" font-size="14" lengthAdjust="spacing" textLength="137" x="243.5" y="326.8857">operador: Operador</text><line style="stroke:#181818;stroke-width:0.5;" x1="224.5" x2="827.5" y1="334.1875" y2="334.1875"/><text fill="#000000" font-family="sans-serif" font-size="14" lengthAdjust="spacing" textLength="4" x="243.5" y="351.1826">&#160;</text><ellipse cx="234.5" cy="364.1328" fill="#84BE84" rx="3" ry="3" style="stroke:#038048;stroke-width:1.0;"/><text fill="#000000" font-family="sans-serif" font-size="14" lengthAdjust="spacing" textLength="579" x="243.5" y="367.4795">Termino(Expresion primerTermino, Expresion segundoTermino, Operador operador)</text></g><!--class Operador--><g id="elem_Operador"><rect codeLine="28" fill="#F1F1F1" height="96.8906" id="Operador" rx="2.5" ry="2.5" style="stroke:#181818;stroke-width:0.5;" width="470" x="1258" y="39.5"/><ellipse cx="1456.25" cy="55.5" fill="#A9DCDF" rx="11" ry="11" style="stroke:#181818;stroke-width:1.0;"/><path d="M1456.3594,50.8438 L1455.2031,55.9219 L1457.5313,55.9219 L1456.3594,50.8438 Z M1454.875,48.6094 L1457.8594,48.6094 L1461.2188,61 L1458.7656,61 L1458,57.9375 L1454.7188,57.9375 L1453.9688,61 L1451.5313,61 L1454.875,48.6094 Z " fill="#000000"/><text fill="#000000" font-family="sans-serif" font-size="14" font-style="italic" lengthAdjust="spacing" textLength="65" x="1476.75" y="60.3467">Operador</text><line style="stroke:#181818;stroke-width:0.5;" x1="1259" x2="1727" y1="71.5" y2="71.5"/><line style="stroke:#181818;stroke-width:0.5;" x1="1259" x2="1727" y1="79.5" y2="79.5"/><ellipse cx="1269" cy="93.1484" fill="#84BE84" rx="3" ry="3" style="stroke:#038048;stroke-width:1.0;"/><text fill="#000000" font-family="sans-serif" font-size="14" font-style="italic" lengthAdjust="spacing" textLength="444" x="1278" y="96.4951">getResultado(primerTermino, segundoTermino: Expresion): float</text><ellipse cx="1269" cy="109.4453" fill="#84BE84" rx="3" ry="3" style="stroke:#038048;stroke-width:1.0;"/><text fill="#000000" font-family="sans-serif" font-size="14" font-style="italic" lengthAdjust="spacing" textLength="166" x="1278" y="112.792">getOpuesto(): Operador</text><ellipse cx="1269" cy="125.7422" fill="#84BE84" rx="3" ry="3" style="stroke:#038048;stroke-width:1.0;"/><text fill="#000000" font-family="sans-serif" font-size="14" lengthAdjust="spacing" textLength="141" x="1278" y="129.0889">getSimbolo() : String</text></g><!--class Suma--><g id="elem_Suma"><rect codeLine="35" fill="#F1F1F1" height="96.8906" id="Suma" rx="2.5" ry="2.5" style="stroke:#181818;stroke-width:0.5;" width="166" x="863" y="253.5"/><ellipse cx="922.25" cy="269.5" fill="#ADD1B2" rx="11" ry="11" style="stroke:#181818;stroke-width:1.0;"/><path d="M925.2188,275.1406 Q924.6406,275.4375 924,275.5781 Q923.3594,275.7344 922.6563,275.7344 Q920.1563,275.7344 918.8281,274.0938 Q917.5156,272.4375 917.5156,269.3125 Q917.5156,266.1875 918.8281,264.5313 Q920.1563,262.875 922.6563,262.875 Q923.3594,262.875 924,263.0313 Q924.6563,263.1875 925.2188,263.4844 L925.2188,266.2031 Q924.5938,265.625 924,265.3594 Q923.4063,265.0781 922.7813,265.0781 Q921.4375,265.0781 920.75,266.1563 Q920.0625,267.2188 920.0625,269.3125 Q920.0625,271.4063 920.75,272.4844 Q921.4375,273.5469 922.7813,273.5469 Q923.4063,273.5469 924,273.2813 Q924.5938,273 925.2188,272.4219 L925.2188,275.1406 Z " fill="#000000"/><text fill="#000000" font-family="sans-serif" font-size="14" lengthAdjust="spacing" textLength="39" x="942.75" y="274.3467">Suma</text><line style="stroke:#181818;stroke-width:0.5;" x1="864" x2="1028" y1="285.5" y2="285.5"/><rect fill="none" height="6" style="stroke:#C82930;stroke-width:1.0;" width="6" x="871" y="296.1484"/><text fill="#000000" font-family="sans-serif" font-size="14" lengthAdjust="spacing" text-decoration="underline" textLength="121" x="883" y="302.4951">INSTANCE : Suma</text><line style="stroke:#181818;stroke-width:0.5;" x1="864" x2="1028" y1="309.7969" y2="309.7969"/><rect fill="#F24D5C" height="6" style="stroke:#C82930;stroke-width:1.0;" width="6" x="871" y="320.4453"/><text fill="#000000" font-family="sans-serif" font-size="14" lengthAdjust="spacing" textLength="49" x="883" y="326.792">Suma()</text><ellipse cx="874" cy="339.7422" fill="#84BE84" rx="3" ry="3" style="stroke:#038048;stroke-width:1.0;"/><text fill="#000000" font-family="sans-serif" font-size="14" lengthAdjust="spacing" textLength="140" x="883" y="343.0889">getInstance(): Suma</text></g><!--class Resta--><g id="elem_Resta"><rect codeLine="42" fill="#F1F1F1" height="96.8906" id="Resta" rx="2.5" ry="2.5" style="stroke:#181818;stroke-width:0.5;" width="167" x="1064.5" y="253.5"/><ellipse cx="1123.75" cy="269.5" fill="#ADD1B2" rx="11" ry="11" style="stroke:#181818;stroke-width:1.0;"/><path d="M1126.7188,275.1406 Q1126.1406,275.4375 1125.5,275.5781 Q1124.8594,275.7344 1124.1563,275.7344 Q1121.6563,275.7344 1120.3281,274.0938 Q1119.0156,272.4375 1119.0156,269.3125 Q1119.0156,266.1875 1120.3281,264.5313 Q1121.6563,262.875 1124.1563,262.875 Q1124.8594,262.875 1125.5,263.0313 Q1126.1563,263.1875 1126.7188,263.4844 L1126.7188,266.2031 Q1126.0938,265.625 1125.5,265.3594 Q1124.9063,265.0781 1124.2813,265.0781 Q1122.9375,265.0781 1122.25,266.1563 Q1121.5625,267.2188 1121.5625,269.3125 Q1121.5625,271.4063 1122.25,272.4844 Q1122.9375,273.5469 1124.2813,273.5469 Q1124.9063,273.5469 1125.5,273.2813 Q1126.0938,273 1126.7188,272.4219 L1126.7188,275.1406 Z " fill="#000000"/><text fill="#000000" font-family="sans-serif" font-size="14" lengthAdjust="spacing" textLength="40" x="1144.25" y="274.3467">Resta</text><line style="stroke:#181818;stroke-width:0.5;" x1="1065.5" x2="1230.5" y1="285.5" y2="285.5"/><rect fill="none" height="6" style="stroke:#C82930;stroke-width:1.0;" width="6" x="1072.5" y="296.1484"/><text fill="#000000" font-family="sans-serif" font-size="14" lengthAdjust="spacing" text-decoration="underline" textLength="122" x="1084.5" y="302.4951">INSTANCE : Resta</text><line style="stroke:#181818;stroke-width:0.5;" x1="1065.5" x2="1230.5" y1="309.7969" y2="309.7969"/><rect fill="#F24D5C" height="6" style="stroke:#C82930;stroke-width:1.0;" width="6" x="1072.5" y="320.4453"/><text fill="#000000" font-family="sans-serif" font-size="14" lengthAdjust="spacing" textLength="50" x="1084.5" y="326.792">Resta()</text><ellipse cx="1075.5" cy="339.7422" fill="#84BE84" rx="3" ry="3" style="stroke:#038048;stroke-width:1.0;"/><text fill="#000000" font-family="sans-serif" font-size="14" lengthAdjust="spacing" textLength="141" x="1084.5" y="343.0889">getInstance(): Resta</text></g><!--class Multiplicacion--><g id="elem_Multiplicacion"><rect codeLine="49" fill="#F1F1F1" height="96.8906" id="Multiplicacion" rx="2.5" ry="2.5" style="stroke:#181818;stroke-width:0.5;" width="219" x="1266.5" y="253.5"/><ellipse cx="1325.75" cy="269.5" fill="#ADD1B2" rx="11" ry="11" style="stroke:#181818;stroke-width:1.0;"/><path d="M1328.7188,275.1406 Q1328.1406,275.4375 1327.5,275.5781 Q1326.8594,275.7344 1326.1563,275.7344 Q1323.6563,275.7344 1322.3281,274.0938 Q1321.0156,272.4375 1321.0156,269.3125 Q1321.0156,266.1875 1322.3281,264.5313 Q1323.6563,262.875 1326.1563,262.875 Q1326.8594,262.875 1327.5,263.0313 Q1328.1563,263.1875 1328.7188,263.4844 L1328.7188,266.2031 Q1328.0938,265.625 1327.5,265.3594 Q1326.9063,265.0781 1326.2813,265.0781 Q1324.9375,265.0781 1324.25,266.1563 Q1323.5625,267.2188 1323.5625,269.3125 Q1323.5625,271.4063 1324.25,272.4844 Q1324.9375,273.5469 1326.2813,273.5469 Q1326.9063,273.5469 1327.5,273.2813 Q1328.0938,273 1328.7188,272.4219 L1328.7188,275.1406 Z " fill="#000000"/><text fill="#000000" font-family="sans-serif" font-size="14" lengthAdjust="spacing" textLength="92" x="1346.25" y="274.3467">Multiplicacion</text><line style="stroke:#181818;stroke-width:0.5;" x1="1267.5" x2="1484.5" y1="285.5" y2="285.5"/><rect fill="none" height="6" style="stroke:#C82930;stroke-width:1.0;" width="6" x="1274.5" y="296.1484"/><text fill="#000000" font-family="sans-serif" font-size="14" lengthAdjust="spacing" text-decoration="underline" textLength="174" x="1286.5" y="302.4951">INSTANCE : Multiplicacion</text><line style="stroke:#181818;stroke-width:0.5;" x1="1267.5" x2="1484.5" y1="309.7969" y2="309.7969"/><rect fill="#F24D5C" height="6" style="stroke:#C82930;stroke-width:1.0;" width="6" x="1274.5" y="320.4453"/><text fill="#000000" font-family="sans-serif" font-size="14" lengthAdjust="spacing" textLength="102" x="1286.5" y="326.792">Multiplicacion()</text><ellipse cx="1277.5" cy="339.7422" fill="#84BE84" rx="3" ry="3" style="stroke:#038048;stroke-width:1.0;"/><text fill="#000000" font-family="sans-serif" font-size="14" lengthAdjust="spacing" textLength="193" x="1286.5" y="343.0889">getInstance(): Multiplicacion</text></g><!--class Division--><g id="elem_Division"><rect codeLine="56" fill="#F1F1F1" height="96.8906" id="Division" rx="2.5" ry="2.5" style="stroke:#181818;stroke-width:0.5;" width="180" x="1521" y="253.5"/><ellipse cx="1580.25" cy="269.5" fill="#ADD1B2" rx="11" ry="11" style="stroke:#181818;stroke-width:1.0;"/><path d="M1583.2188,275.1406 Q1582.6406,275.4375 1582,275.5781 Q1581.3594,275.7344 1580.6563,275.7344 Q1578.1563,275.7344 1576.8281,274.0938 Q1575.5156,272.4375 1575.5156,269.3125 Q1575.5156,266.1875 1576.8281,264.5313 Q1578.1563,262.875 1580.6563,262.875 Q1581.3594,262.875 1582,263.0313 Q1582.6563,263.1875 1583.2188,263.4844 L1583.2188,266.2031 Q1582.5938,265.625 1582,265.3594 Q1581.4063,265.0781 1580.7813,265.0781 Q1579.4375,265.0781 1578.75,266.1563 Q1578.0625,267.2188 1578.0625,269.3125 Q1578.0625,271.4063 1578.75,272.4844 Q1579.4375,273.5469 1580.7813,273.5469 Q1581.4063,273.5469 1582,273.2813 Q1582.5938,273 1583.2188,272.4219 L1583.2188,275.1406 Z " fill="#000000"/><text fill="#000000" font-family="sans-serif" font-size="14" lengthAdjust="spacing" textLength="53" x="1600.75" y="274.3467">Division</text><line style="stroke:#181818;stroke-width:0.5;" x1="1522" x2="1700" y1="285.5" y2="285.5"/><rect fill="none" height="6" style="stroke:#C82930;stroke-width:1.0;" width="6" x="1529" y="296.1484"/><text fill="#000000" font-family="sans-serif" font-size="14" lengthAdjust="spacing" text-decoration="underline" textLength="135" x="1541" y="302.4951">INSTANCE : Division</text><line style="stroke:#181818;stroke-width:0.5;" x1="1522" x2="1700" y1="309.7969" y2="309.7969"/><rect fill="#F24D5C" height="6" style="stroke:#C82930;stroke-width:1.0;" width="6" x="1529" y="320.4453"/><text fill="#000000" font-family="sans-serif" font-size="14" lengthAdjust="spacing" textLength="63" x="1541" y="326.792">Division()</text><ellipse cx="1532" cy="339.7422" fill="#84BE84" rx="3" ry="3" style="stroke:#038048;stroke-width:1.0;"/><text fill="#000000" font-family="sans-serif" font-size="14" lengthAdjust="spacing" textLength="154" x="1541" y="343.0889">getInstance(): Division</text></g><!--class Potencia--><g id="elem_Potencia"><rect codeLine="63" fill="#F1F1F1" height="96.8906" id="Potencia" rx="2.5" ry="2.5" style="stroke:#181818;stroke-width:0.5;" width="187" x="1736.5" y="253.5"/><ellipse cx="1795.75" cy="269.5" fill="#ADD1B2" rx="11" ry="11" style="stroke:#181818;stroke-width:1.0;"/><path d="M1798.7188,275.1406 Q1798.1406,275.4375 1797.5,275.5781 Q1796.8594,275.7344 1796.1563,275.7344 Q1793.6563,275.7344 1792.3281,274.0938 Q1791.0156,272.4375 1791.0156,269.3125 Q1791.0156,266.1875 1792.3281,264.5313 Q1793.6563,262.875 1796.1563,262.875 Q1796.8594,262.875 1797.5,263.0313 Q1798.1563,263.1875 1798.7188,263.4844 L1798.7188,266.2031 Q1798.0938,265.625 1797.5,265.3594 Q1796.9063,265.0781 1796.2813,265.0781 Q1794.9375,265.0781 1794.25,266.1563 Q1793.5625,267.2188 1793.5625,269.3125 Q1793.5625,271.4063 1794.25,272.4844 Q1794.9375,273.5469 1796.2813,273.5469 Q1796.9063,273.5469 1797.5,273.2813 Q1798.0938,273 1798.7188,272.4219 L1798.7188,275.1406 Z " fill="#000000"/><text fill="#000000" font-family="sans-serif" font-size="14" lengthAdjust="spacing" textLength="60" x="1816.25" y="274.3467">Potencia</text><line style="stroke:#181818;stroke-width:0.5;" x1="1737.5" x2="1922.5" y1="285.5" y2="285.5"/><rect fill="none" height="6" style="stroke:#C82930;stroke-width:1.0;" width="6" x="1744.5" y="296.1484"/><text fill="#000000" font-family="sans-serif" font-size="14" lengthAdjust="spacing" text-decoration="underline" textLength="142" x="1756.5" y="302.4951">INSTANCE : Potencia</text><line style="stroke:#181818;stroke-width:0.5;" x1="1737.5" x2="1922.5" y1="309.7969" y2="309.7969"/><rect fill="#F24D5C" height="6" style="stroke:#C82930;stroke-width:1.0;" width="6" x="1744.5" y="320.4453"/><text fill="#000000" font-family="sans-serif" font-size="14" lengthAdjust="spacing" textLength="70" x="1756.5" y="326.792">Potencia()</text><ellipse cx="1747.5" cy="339.7422" fill="#84BE84" rx="3" ry="3" style="stroke:#038048;stroke-width:1.0;"/><text fill="#000000" font-family="sans-serif" font-size="14" lengthAdjust="spacing" textLength="161" x="1756.5" y="343.0889">getInstance(): Potencia</text></g><!--class Raiz--><g id="elem_Raiz"><rect codeLine="70" fill="#F1F1F1" height="96.8906" id="Raiz" rx="2.5" ry="2.5" style="stroke:#181818;stroke-width:0.5;" width="156" x="1959" y="253.5"/><ellipse cx="2018.25" cy="269.5" fill="#ADD1B2" rx="11" ry="11" style="stroke:#181818;stroke-width:1.0;"/><path d="M2021.2188,275.1406 Q2020.6406,275.4375 2020,275.5781 Q2019.3594,275.7344 2018.6563,275.7344 Q2016.1563,275.7344 2014.8281,274.0938 Q2013.5156,272.4375 2013.5156,269.3125 Q2013.5156,266.1875 2014.8281,264.5313 Q2016.1563,262.875 2018.6563,262.875 Q2019.3594,262.875 2020,263.0313 Q2020.6563,263.1875 2021.2188,263.4844 L2021.2188,266.2031 Q2020.5938,265.625 2020,265.3594 Q2019.4063,265.0781 2018.7813,265.0781 Q2017.4375,265.0781 2016.75,266.1563 Q2016.0625,267.2188 2016.0625,269.3125 Q2016.0625,271.4063 2016.75,272.4844 Q2017.4375,273.5469 2018.7813,273.5469 Q2019.4063,273.5469 2020,273.2813 Q2020.5938,273 2021.2188,272.4219 L2021.2188,275.1406 Z " fill="#000000"/><text fill="#000000" font-family="sans-serif" font-size="14" lengthAdjust="spacing" textLength="29" x="2038.75" y="274.3467">Raiz</text><line style="stroke:#181818;stroke-width:0.5;" x1="1960" x2="2114" y1="285.5" y2="285.5"/><rect fill="none" height="6" style="stroke:#C82930;stroke-width:1.0;" width="6" x="1967" y="296.1484"/><text fill="#000000" font-family="sans-serif" font-size="14" lengthAdjust="spacing" text-decoration="underline" textLength="111" x="1979" y="302.4951">INSTANCE : Raiz</text><line style="stroke:#181818;stroke-width:0.5;" x1="1960" x2="2114" y1="309.7969" y2="309.7969"/><rect fill="#F24D5C" height="6" style="stroke:#C82930;stroke-width:1.0;" width="6" x="1967" y="320.4453"/><text fill="#000000" font-family="sans-serif" font-size="14" lengthAdjust="spacing" textLength="39" x="1979" y="326.792">Raiz()</text><ellipse cx="1970" cy="339.7422" fill="#84BE84" rx="3" ry="3" style="stroke:#038048;stroke-width:1.0;"/><text fill="#000000" font-family="sans-serif" font-size="14" lengthAdjust="spacing" textLength="130" x="1979" y="343.0889">getInstance(): Raiz</text></g><!--reverse link Expresion to Constante--><g id="link_Expresion_Constante"><path codeLine="12" d="M218.312,181.8175 C186.472,213.3575 164.13,235.48 137.97,261.41 " fill="none" id="Expresion-backto-Constante" style="stroke:#181818;stroke-width:1.0;"/><polygon fill="none" points="231.1,169.15,214.0895,177.5549,222.5345,186.0802,231.1,169.15" style="stroke:#181818;stroke-width:1.0;"/></g><!--reverse link Expresion to Termino--><g id="link_Expresion_Termino"><path codeLine="18" d="M405.6892,181.8163 C425.4592,201.3963 433.7,209.56 453.07,228.75 " fill="none" id="Expresion-backto-Termino" style="stroke:#181818;stroke-width:1.0;"/><polygon fill="none" points="392.9,169.15,401.4671,186.0794,409.9113,177.5532,392.9,169.15" style="stroke:#181818;stroke-width:1.0;"/></g><!--reverse link Operador to Suma--><g id="link_Operador_Suma"><path codeLine="34" d="M1278.1474,141.482 C1198.7474,164.252 1125.02,190.18 1047,229 C1033.22,235.86 1019.25,244.5 1006.29,253.4 " fill="none" id="Operador-backto-Suma" style="stroke:#181818;stroke-width:1.0;"/><polygon fill="none" points="1295.45,136.52,1276.4934,135.7144,1279.8014,147.2495,1295.45,136.52" style="stroke:#181818;stroke-width:1.0;"/></g><!--reverse link Operador to Resta--><g id="link_Operador_Resta"><path codeLine="41" d="M1389.654,145.2875 C1342.624,171.4775 1299.78,196.45 1249,229 C1237.13,236.61 1224.72,245.04 1212.82,253.37 " fill="none" id="Operador-backto-Resta" style="stroke:#181818;stroke-width:1.0;"/><polygon fill="none" points="1405.38,136.53,1386.7349,140.0455,1392.5732,150.5295,1405.38,136.53" style="stroke:#181818;stroke-width:1.0;"/></g><!--reverse link Operador to Multiplicacion--><g id="link_Operador_Multiplicacion"><path codeLine="48" d="M1458.0427,152.3393 C1438.8427,187.1293 1421.6,218.37 1402.37,253.22 " fill="none" id="Operador-backto-Multiplicacion" style="stroke:#181818;stroke-width:1.0;"/><polygon fill="none" points="1466.74,136.58,1452.7896,149.4402,1463.2958,155.2384,1466.74,136.58" style="stroke:#181818;stroke-width:1.0;"/></g><!--reverse link Operador to Division--><g id="link_Operador_Division"><path codeLine="55" d="M1528.2362,152.3067 C1547.6062,187.0967 1565.01,218.37 1584.4,253.22 " fill="none" id="Operador-backto-Division" style="stroke:#181818;stroke-width:1.0;"/><polygon fill="none" points="1519.48,136.58,1522.9939,155.2254,1533.4784,149.388,1519.48,136.58" style="stroke:#181818;stroke-width:1.0;"/></g><!--reverse link Operador to Potencia--><g id="link_Operador_Potencia"><path codeLine="62" d="M1585.979,145.9851 C1629.699,172.8951 1669.88,197.86 1719,229 C1731.32,236.81 1744.36,245.18 1757,253.34 " fill="none" id="Operador-backto-Potencia" style="stroke:#181818;stroke-width:1.0;"/><polygon fill="none" points="1570.65,136.55,1582.834,151.0948,1589.124,140.8755,1570.65,136.55" style="stroke:#181818;stroke-width:1.0;"/></g><!--reverse link Operador to Raiz--><g id="link_Operador_Raiz"><path codeLine="69" d="M1713.1382,141.5024 C1792.0382,164.0324 1864.39,189.77 1941,229 C1954.35,235.84 1967.79,244.52 1980.2,253.48 " fill="none" id="Operador-backto-Raiz" style="stroke:#181818;stroke-width:1.0;"/><polygon fill="none" points="1695.83,136.56,1711.4907,147.2718,1714.7856,135.733,1695.83,136.56" style="stroke:#181818;stroke-width:1.0;"/></g><!--SRC=[ZLFjRe8m5Fqzdg8_8SeB6BDaSIunsToYla35wcu2bBJ5B3BUVRtG5gbCv1Uz7-UUddjAzr89cYYIf5HAilmf19F0Sr85JnDIKPEk2JlJjAGYZ6Rac7AglFI9gNMPCS4bLho3LFCtB7k-hViicA07hkUuKXlogo4h16JGJDqg0Vdf5cx12w1XH6OT-Q6P9PDgj6pDHKPJkD033RdXf3iilIbXJfyhdEWQimw2JiJvRnoJ1S_rw5oneDNOdL7Zc6XTkRWIrQN39aDCAjB8H7y- -ew9379kiCq9aQiZiFHGumWKaGcJwmaG4ybEPNxWmqchGIU1nisO-kO8FB7ZmevJRzJqoa_zELC7w6Qu2zA-9LrXrQJroWm1RtSR9ijKwShGu_3l3PsLx-Asrk5eGIU2rw2hjf3jUSeRWncdckiu_iswjcL6pQxmrrmg9cPRfDAxLv3KPBNUxbxMYoNYOOyfioCn5aO3H5QDUnBMF1bi7AInmTTWU3J_3n5fkpmcc_PXZL1fM_NZwFFuq2k38eM49cYvbb0_sBwIUxGy48zVFpjAr0CRLEyLpY0xllRua8QkrwDfuwC47S2Dc5zSiJm1krTxV8YMw_LesVWeBGTmGsj3uMAjfdyVSnhs-4RJiN6VOMCT_040]--></g></svg>